<svg id="Layer_1" height="512" viewBox="0 0 512 512" width="512" xmlns="http://www.w3.org/2000/svg" data-name="Layer 1"><path d="m26.268 344.188h459.455v14.012h-459.455z" fill="#d4e1f4"/><g fill="#0635c9"><path d="m72.835 215.658a6 6 0 0 0 6 6h29.15a6 6 0 0 0 6-6v-3.716h54.566v-12h-54.566v-3.717a6 6 0 0 0 -6-6h-29.15a6 6 0 0 0 -6 6v3.717h-53.92a6 6 0 1 0 0 12h53.92zm12-13.433h17.15v7.433h-17.15z"/><path d="m181.505 211.942h53.92v3.716a6 6 0 0 0 6 6h29.15a6 6 0 0 0 6-6v-3.716h54.566v-12h-54.566v-3.717a6 6 0 0 0 -6-6h-29.15a6 6 0 0 0 -6 6v3.717h-53.92a6 6 0 0 0 0 12zm65.92-9.717h17.15v7.433h-17.15z"/><path d="m439.165 196.225a6 6 0 0 0 -6-6h-29.15a6 6 0 0 0 -6 6v3.717h-53.915a6 6 0 0 0 0 12h53.92v3.716a6 6 0 0 0 6 6h29.15a6 6 0 0 0 6-6v-3.716h54.56v-12h-54.565zm-12 13.433h-17.15v-7.433h17.15z"/><path d="m465.353 234.66a6 6 0 1 0 -3.875 11.358 27.363 27.363 0 0 1 18.522 25.907v79.875h-448v-79.875a27.333 27.333 0 0 1 16.716-25.218 6 6 0 1 0 -4.675-11.052 39.31 39.31 0 0 0 -24.041 36.27v85.875a6 6 0 0 0 6 6h460a6 6 0 0 0 6-6v-85.875a39.366 39.366 0 0 0 -26.647-37.265z"/></g><path d="m446.82 150.421a61.81 61.81 0 0 0 -18.364 8.3 72.937 72.937 0 0 1 -9.879 5.385c-.767-.435-1.614-.924-2.514-1.444-7.978-4.607-20.036-11.57-30.642-12.977-23.387-3.108-41.294 7.379-47.9 28.038l-.026.089a49.739 49.739 0 0 0 -1.645-4.926c-3.064-7.737-15.841-32.224-51.623-22.468a61.81 61.81 0 0 0 -18.364 8.3 72.876 72.876 0 0 1 -9.879 5.385c-.767-.435-1.614-.924-2.513-1.444-7.979-4.607-20.036-11.57-30.643-12.977-23.386-3.108-41.294 7.379-47.9 28.038-.01.029-.018.059-.027.089a49.844 49.844 0 0 0 -1.645-4.927c-3.064-7.736-15.838-32.222-51.621-22.467a61.786 61.786 0 0 0 -18.366 8.3 73.051 73.051 0 0 1 -9.879 5.384c-.767-.435-1.614-.924-2.513-1.444-7.979-4.607-20.036-11.57-30.643-12.977-23.393-3.108-41.293 7.379-47.9 28.038-6.286 19.665.543 41.986 15.222 49.757 7.965 4.217 12.867 7.128 14.355 9.532 1.126 1.82.924 4.866.359 11.584-.1 1.225-.214 2.537-.321 3.948-.79 10.331-1.97 45.484 16.019 64.07a11.662 11.662 0 0 0 4.712 2.763 11.76 11.76 0 0 0 15.59-12.993c-.276-3-3.508-42.13 12.894-62.093a3.211 3.211 0 0 1 4.858.02c16.111 20.1 12.906 59.088 12.633 62.075a11.711 11.711 0 0 0 11.685 13.645 11.99 11.99 0 0 0 3.9-.654 11.668 11.668 0 0 0 4.715-2.763c17.987-18.586 16.807-53.739 16.017-64.07-.107-1.4-.216-2.711-.319-3.93-.564-6.721-.767-9.769.359-11.589 1.487-2.4 6.39-5.318 14.359-9.548 7.248-3.847 12.525-11.4 15.282-20.47 2.752 9.034 8.135 16.58 15.489 20.473 7.965 4.217 12.866 7.128 14.355 9.532 1.126 1.82.924 4.866.359 11.584-.1 1.225-.214 2.537-.321 3.948-.79 10.33-1.972 45.482 16.014 64.066a11.651 11.651 0 0 0 4.716 2.767 11.76 11.76 0 0 0 15.591-12.991c-.275-2.988-3.511-42.128 12.892-62.094a3.212 3.212 0 0 1 4.86.019c16.11 20.1 12.906 59.088 12.633 62.075a11.712 11.712 0 0 0 11.683 13.646 11.98 11.98 0 0 0 3.9-.654 11.678 11.678 0 0 0 4.718-2.764c17.987-18.586 16.807-53.739 16.017-64.07-.107-1.4-.217-2.711-.319-3.93-.565-6.721-.767-9.769.359-11.589 1.487-2.4 6.39-5.318 14.359-9.548 7.248-3.847 12.524-11.4 15.282-20.47 2.752 9.034 8.135 16.58 15.489 20.473 7.965 4.217 12.866 7.128 14.354 9.532 1.127 1.819.924 4.866.359 11.584-.1 1.224-.214 2.537-.321 3.948-.79 10.331-1.97 45.483 16.015 64.066a11.651 11.651 0 0 0 4.716 2.767 11.761 11.761 0 0 0 15.591-12.991c-.275-2.988-3.511-42.128 12.892-62.094a3.212 3.212 0 0 1 4.86.019c16.11 20.1 12.906 59.088 12.633 62.075a11.712 11.712 0 0 0 11.683 13.646 11.98 11.98 0 0 0 3.9-.654 11.666 11.666 0 0 0 4.717-2.764c17.988-18.586 16.808-53.739 16.018-64.07-.107-1.4-.217-2.711-.319-3.93-.565-6.721-.767-9.769.359-11.589 1.486-2.4 6.39-5.318 14.358-9.548 15.624-8.293 22.109-33.8 13.877-54.591-3.043-7.727-15.821-32.211-51.601-22.458zm-293.061 66.46c-21.1 11.2-22.522 15.213-21.049 32.741.1 1.191.207 2.467.312 3.84 1.415 18.5-1.1 42.4-12.322 54.437l-.132.049c.006-.044.011-.089.016-.134.2-1.88 4.585-46.334-15.187-71a15.208 15.208 0 0 0 -23.5-.133c-20.176 24.558-15.737 69.251-15.538 71.141a1.278 1.278 0 0 0 .021.139l-.133-.052c-11.229-12.033-13.741-35.944-12.327-54.443.105-1.379.214-2.661.314-3.858 1.475-17.537.05-21.552-21.056-32.726-9.622-5.094-13.931-21.35-9.409-35.5 6.76-21.148 26.647-20.891 34.889-19.8s19.5 7.592 26.22 11.474c2.272 1.312 4.234 2.445 5.752 3.2 7.313 3.637 18.33 8.219 29.523 6.035a6 6 0 0 0 -2.3-11.778 23.514 23.514 0 0 1 -10.084-.466c.628-.383 1.234-.758 1.825-1.125a50.264 50.264 0 0 1 15.206-6.922c24.541-6.687 33.907 6.72 37.307 15.307 5.91 14.926 1.854 34.159-8.348 39.574zm162.59 0c-21.1 11.2-22.522 15.213-21.049 32.741.1 1.191.207 2.467.312 3.84 1.414 18.5-1.1 42.4-12.322 54.437l-.132.049c.006-.044.011-.089.016-.134.2-1.88 4.585-46.334-15.187-71a15.208 15.208 0 0 0 -23.5-.132c-20.176 24.557-15.736 69.25-15.537 71.14a1.278 1.278 0 0 0 .021.139l-.133-.052c-11.231-12.034-13.742-35.945-12.327-54.443.105-1.379.214-2.661.314-3.858 1.475-17.537.05-21.552-21.057-32.726-9.622-5.094-13.93-21.35-9.408-35.5 6.759-21.148 26.65-20.891 34.889-19.8s19.5 7.592 26.22 11.474c2.272 1.312 4.234 2.445 5.752 3.2 7.313 3.637 18.335 8.219 29.523 6.035a6 6 0 0 0 -2.3-11.778 23.514 23.514 0 0 1 -10.084-.466c.628-.383 1.234-.758 1.825-1.125a50.257 50.257 0 0 1 15.2-6.924c24.543-6.687 33.908 6.72 37.308 15.308 5.913 14.928 1.858 34.16-8.344 39.575zm162.589 0c-21.1 11.2-22.521 15.213-21.048 32.741.1 1.191.207 2.467.312 3.84 1.414 18.5-1.1 42.4-12.322 54.437l-.132.049c.006-.044.011-.089.016-.134.2-1.88 4.585-46.334-15.187-71a15.208 15.208 0 0 0 -23.5-.132c-20.176 24.557-15.736 69.25-15.537 71.14 0 .051.012.1.019.139l-.131-.052c-11.23-12.033-13.743-35.945-12.328-54.443.105-1.379.213-2.661.314-3.857 1.476-17.538.051-21.552-21.056-32.727-9.622-5.094-13.93-21.35-9.408-35.5 6.76-21.148 26.648-20.891 34.889-19.8s19.5 7.592 26.219 11.474c2.273 1.312 4.235 2.445 5.752 3.2 7.313 3.637 18.333 8.219 29.524 6.035a6 6 0 0 0 -2.3-11.778 23.514 23.514 0 0 1 -10.084-.466c.628-.383 1.233-.758 1.825-1.125a50.257 50.257 0 0 1 15.2-6.924c24.542-6.687 33.908 6.72 37.308 15.308 5.917 14.928 1.857 34.16-8.345 39.575z" fill="#1ae5be"/></svg>