<svg id="Layer_1" height="512" viewBox="0 0 512 512" width="512" xmlns="http://www.w3.org/2000/svg" data-name="Layer 1"><path d="m313.056 422.315c-4.009-47.3-16.206-83.958-36.251-108.97a28.668 28.668 0 0 0 -22.526-10.689 29.576 29.576 0 0 0 -6.857.811c.032.04.066.077.1.117 20.046 25.011 32.243 61.674 36.252 108.969a369.779 369.779 0 0 1 .061 63.343c-.017.161-.04.322-.07.481a8.683 8.683 0 0 0 11.726 9.805 11.251 11.251 0 0 0 3.644-1.727 93.477 93.477 0 0 0 15.2-21.376 391.653 391.653 0 0 0 -1.279-40.764z" fill="#d4e1f4"/><path d="m165.541 475.9c-.012-.111-.049-.473-.1-1.056-19.23-34.6-23.564-85.374-20.458-126.009.268-3.5.542-6.759.8-9.8 1.644-19.544 2.636-31.341-3.975-42.02-6.362-10.278-19.33-18.36-44.227-31.54-13.724-7.266-24.2-21.845-29.509-41.051a106.92 106.92 0 0 1 1.288-59.5c6.053-18.936 17.186-34.183 32.195-44.09 17.53-11.57 39.683-15.678 65.848-12.207.924.123 1.859.275 2.8.44-10.918-4.922-22.053-8.871-32.084-10.2-26.166-3.471-48.319.637-65.848 12.206-15.009 9.908-26.142 25.154-32.2 44.091a106.92 106.92 0 0 0 -1.289 59.5c5.305 19.205 15.785 33.785 29.51 41.05 24.9 13.18 37.865 21.262 44.227 31.54 6.611 10.68 5.618 22.476 3.975 42.02-.256 3.04-.53 6.3-.8 9.8-3.757 49.144 3.346 113.144 34.553 145.388a11.309 11.309 0 0 0 3.635 1.719 8.684 8.684 0 0 0 11.727-9.8c-.028-.162-.051-.321-.068-.481z" fill="#d4e1f4"/><path d="m105.25 292.016c4.451 7.191 3.646 16.755 2.187 34.117-.254 3.014-.526 6.244-.791 9.719-2.144 28.036-.6 56.979 4.348 81.5 6.169 30.567 17.231 54.263 32.877 70.429 1.766 1.825 4.446 3.34 8.194 4.631a20.942 20.942 0 0 0 6.828 1.145 20.17 20.17 0 0 0 20.121-23.8c-.515-5.328-9.671-107.629 33.894-160.658a16.824 16.824 0 0 1 25.817.129c42.71 53.293 33.691 155.2 33.182 160.533a20.534 20.534 0 0 0 1.383 11.762c4.165 9.607 15.4 14.389 25.567 10.889 3.747-1.29 6.428-2.805 8.194-4.629 15.646-16.167 26.708-39.863 32.877-70.43 4.947-24.519 6.492-53.462 4.348-81.5-.235-3.075-.472-5.959-.7-8.673-1.907-23.157-2.168-30.86 5.01-38.782l-8.893-8.057c-11.013 12.157-9.97 24.825-8.076 47.823q.333 4.038.691 8.6c5.624 73.565-13.816 121.933-33.871 142.655a11.057 11.057 0 0 1 -3.489 1.641 8.506 8.506 0 0 1 -10.653-4.317 8.593 8.593 0 0 1 -.55-5.038c.031-.163.056-.328.073-.493a363.7 363.7 0 0 0 -.06-62.286c-3.944-46.523-15.946-82.592-35.674-107.208a28.82 28.82 0 0 0 -44.451-.241c-20.119 24.488-32.375 60.563-36.428 107.221a359.67 359.67 0 0 0 -.108 62.518c.016.164.041.327.072.489a8.289 8.289 0 0 1 -11.2 9.356 11.332 11.332 0 0 1 -3.477-1.628c-20.066-20.733-39.507-69.103-33.882-142.667.264-3.442.533-6.641.784-9.627 1.62-19.255 2.6-30.876-3.941-41.439-6.319-10.21-18.543-17.839-43.551-31.079-13.425-7.107-23.68-21.379-28.875-40.184a104.817 104.817 0 0 1 1.263-58.323c6.259-19.583 28.154-64.161 96.072-55.149 22.176 2.94 49.9 18.947 68.236 29.539 3.506 2.025 6.536 3.774 9.227 5.263l5.807-10.5c-2.594-1.435-5.577-3.158-9.033-5.153-19.162-11.066-48.121-27.79-72.659-31.044-53.362-7.07-94.13 16.62-109.08 63.391-14.331 44.834.664 95.421 33.427 112.766 22.079 11.688 34.167 19.041 38.963 26.789z" fill="#0635c9"/><g fill="#1ae5be"><path d="m348.528 18.446c-74.99 0-136 61.01-136 136s61.01 136 136 136 136-61.009 136-136-61.009-136-136-136zm0 260a124 124 0 1 1 124-124 124.14 124.14 0 0 1 -124 124z"/><path d="m413.349 100.658-94.849 94.849-34.791-34.79a6 6 0 0 0 -8.484 8.484l39.033 39.033a6 6 0 0 0 8.484 0l99.092-99.091a6 6 0 1 0 -8.484-8.485z"/></g></svg>