<svg id="Layer_1" height="512" viewBox="0 0 512 512" width="512" xmlns="http://www.w3.org/2000/svg" data-name="Layer 1"><g fill="#d4e1f4"><path d="m332.113 120.84c10.572-6.555 19.7-12.216 37.655-17.11 15-4.09 28.842-5.291 41.232-3.767-17.783-10.633-41.139-12.647-68.277-5.248-17.953 4.894-27.083 10.555-37.655 17.11a202.589 202.589 0 0 1 -20.85 11.722c10.6 4.519 20.056 7.224 28.687 8.211a211.008 211.008 0 0 0 19.208-10.918z"/><path d="m353.63 392.232c-3.7-43.678-14.966-77.537-33.479-100.637a26.477 26.477 0 0 0 -20.8-9.871 27.293 27.293 0 0 0 -6.333.749c.03.037.062.071.091.108 18.513 23.1 29.777 56.958 33.479 100.636a341.375 341.375 0 0 1 .057 58.5c-.015.149-.037.3-.065.445a8.02 8.02 0 0 0 10.829 9.054 10.365 10.365 0 0 0 3.366-1.595 86.321 86.321 0 0 0 14.034-19.74 361.168 361.168 0 0 0 -1.179-37.649z"/><path d="m217.4 441.72c-.011-.1-.045-.437-.095-.976-17.76-31.953-21.763-78.845-18.893-116.372.247-3.236.5-6.243.736-9.051 1.518-18.049 2.435-28.943-3.671-38.806-5.875-9.492-17.852-16.956-40.844-29.128-12.676-6.71-22.354-20.175-27.254-37.911a98.751 98.751 0 0 1 1.19-54.948c5.591-17.488 15.872-31.569 29.733-40.719 16.189-10.685 36.648-14.478 60.813-11.273.853.113 1.717.254 2.585.407-10.082-4.546-20.366-8.193-29.63-9.422-24.165-3.2-44.624.588-60.813 11.273-13.861 9.15-24.142 23.231-29.733 40.719a98.751 98.751 0 0 0 -1.19 54.948c4.9 17.736 14.578 31.2 27.254 37.911 22.992 12.172 34.969 19.636 40.844 29.128 6.106 9.863 5.189 20.757 3.671 38.806-.236 2.808-.489 5.815-.736 9.051-3.47 45.385 3.09 104.492 31.91 134.27a10.457 10.457 0 0 0 3.358 1.587 8.229 8.229 0 0 0 10.3-4.183 8.312 8.312 0 0 0 .532-4.87c-.034-.146-.055-.293-.067-.441z"/></g><path d="m123.369 248.627c20.657 10.936 31.961 17.806 36.417 25 4.112 6.644 3.361 15.575 2 31.787-.238 2.83-.493 5.861-.742 9.122-2.015 26.341-.563 53.535 4.086 76.573 5.8 28.753 16.214 51.049 30.946 66.271a19.768 19.768 0 0 0 33.608-17.222c-.493-5.113-9.032-100.855 31.723-150.464a15.415 15.415 0 0 1 23.649.118c39.951 49.85 31.546 145.223 31.058 150.35a19.294 19.294 0 0 0 19.249 22.748 20.006 20.006 0 0 0 6.525-1.094 19.579 19.579 0 0 0 7.835-4.436c14.731-15.222 25.143-37.518 30.946-66.271 4.649-23.039 6.1-50.233 4.086-76.573-.248-3.246-.5-6.264-.738-9.081-1.363-16.219-2.114-25.154 2-31.8 4.449-7.187 15.755-14.07 36.418-25.038 16.669-8.848 29.062-27.791 34-51.97 4.753-23.271 2.149-48.478-7.145-69.157a6 6 0 1 0 -10.945 4.919c8.285 18.436 10.594 40.975 6.333 61.836-4.219 20.657-14.378 36.611-27.87 43.772-46.553 24.71-47.936 30.506-44.749 68.439.234 2.79.485 5.779.731 8.992 5.269 68.9-12.915 114.184-31.661 133.554a10.414 10.414 0 0 1 -3.146 1.465 7.617 7.617 0 0 1 -9.535-3.848 7.7 7.7 0 0 1 -.492-4.513c.031-.163.055-.328.072-.493a341.58 341.58 0 0 0 -.055-58.515c-3.706-43.726-15-77.638-33.553-100.793a27.412 27.412 0 0 0 -42.285-.231c-18.926 23.037-30.454 56.954-34.263 100.811a338.018 338.018 0 0 0 -.1 58.732q.027.246.072.489a7.7 7.7 0 0 1 -.492 4.512 7.617 7.617 0 0 1 -9.535 3.849 11.08 11.08 0 0 1 -3.117-1.436c-18.774-19.4-36.958-64.678-31.69-133.583.247-3.228.5-6.23.735-9.031 3.193-37.953 1.809-43.749-44.758-68.4-12.506-6.621-22.064-19.931-26.911-37.478a97.97 97.97 0 0 1 1.182-54.514c5.842-18.282 26.284-59.905 89.742-51.489 20.738 2.751 46.71 17.749 63.9 27.674 5.169 2.986 9.634 5.564 12.941 7.209 15.967 7.94 39.932 17.963 63.586 13.348a6 6 0 1 0 -2.3-11.778c-12.651 2.469-27.022.195-44.579-7.115a208.184 208.184 0 0 0 19.661-11.148c10.515-6.52 19.6-12.151 37.435-17.014 24.693-6.73 45.9-5.858 63.036 2.592a6 6 0 0 0 5.308-10.762c-19.84-9.786-43.895-10.933-71.5-3.407-19.524 5.322-29.762 11.671-40.6 18.392a173.1 173.1 0 0 1 -26.528 14.142 10.457 10.457 0 0 0 -1.03.506c-2.636-1.435-5.853-3.291-9.429-5.356-18.007-10.4-45.221-26.115-68.319-29.179-50.262-6.667-88.672 15.666-102.759 59.736-13.499 42.232.653 89.896 31.546 106.251z" fill="#0635c9"/><path d="m45.818 338.266a6 6 0 0 0 5.015-2.7 32.159 32.159 0 0 1 32.929-13.971 6 6 0 0 0 4.41-10.909 32.158 32.158 0 0 1 -13.972-32.933 6 6 0 0 0 -10.91-4.41 32.162 32.162 0 0 1 -32.929 13.97 6 6 0 0 0 -4.41 10.909 32.158 32.158 0 0 1 13.97 32.929 6 6 0 0 0 5.894 7.115zm16.488-46.783a44.056 44.056 0 0 0 7.726 18.217 44.07 44.07 0 0 0 -18.211 7.726 44.063 44.063 0 0 0 -7.727-18.212 44.074 44.074 0 0 0 18.212-7.731z" fill="#1ae5be"/><path d="m483.927 99.2a57.587 57.587 0 0 1 -45.294-45.294 6 6 0 0 0 -11.766 0 57.587 57.587 0 0 1 -45.294 45.294 6 6 0 0 0 0 11.766 57.586 57.586 0 0 1 45.294 45.294 6 6 0 0 0 11.766 0 57.586 57.586 0 0 1 45.294-45.294 6 6 0 0 0 0-11.766zm-51.177 37.4a69.45 69.45 0 0 0 -31.516-31.516 69.452 69.452 0 0 0 31.516-31.515 69.452 69.452 0 0 0 31.516 31.517 69.45 69.45 0 0 0 -31.516 31.514z" fill="#1ae5be"/><path d="m140.176 384.086a6 6 0 0 0 -4.823-5.883 47.959 47.959 0 0 1 -37.72-37.721 6 6 0 0 0 -11.766 0 47.959 47.959 0 0 1 -37.72 37.718 6 6 0 0 0 0 11.766 47.957 47.957 0 0 1 37.72 37.72 6 6 0 0 0 11.766 0 47.957 47.957 0 0 1 37.72-37.72 6 6 0 0 0 4.823-5.88zm-48.426 24.749a59.826 59.826 0 0 0 -24.75-24.749 59.851 59.851 0 0 0 24.75-24.75 59.851 59.851 0 0 0 24.75 24.75 59.826 59.826 0 0 0 -24.75 24.749z" fill="#1ae5be"/></svg>