<svg id="Layer_1" height="512" viewBox="0 0 512 512" width="512" xmlns="http://www.w3.org/2000/svg" data-name="Layer 1"><path d="m297.707 74.148c8.081-5.011 15.059-9.337 28.781-13.078 11.466-3.126 22.044-4.044 31.515-2.879-13.593-8.127-31.444-9.666-52.186-4.011-13.722 3.74-20.7 8.067-28.781 13.077a154.726 154.726 0 0 1 -15.937 8.96 79.5 79.5 0 0 0 21.927 6.276 161.453 161.453 0 0 0 14.681-8.345z" fill="#d4e1f4"/><path d="m190.665 53.267c-18.47-2.45-34.107.45-46.481 8.617-10.595 6.993-18.453 17.755-22.726 31.122a75.478 75.478 0 0 0 -.91 42c3.745 13.557 11.143 23.848 20.831 28.977 17.574 9.3 26.728 15.008 31.219 22.264 4.666 7.538 3.966 15.865 2.806 29.661-.181 2.146-.374 4.444-.564 6.917-1.326 17.345-.735 39.312 2.94 57.787l19.565.676a233.912 233.912 0 0 1 -1.833-51.573c.189-2.472.382-4.771.563-6.917 1.16-13.8 1.861-22.123-2.806-29.661-4.491-7.255-13.645-12.96-31.219-22.263-9.688-5.129-17.086-15.42-20.83-28.977a75.468 75.468 0 0 1 .909-42c4.273-13.367 12.131-24.13 22.726-31.123 12.374-8.167 28.011-11.066 46.481-8.616.652.086 1.312.194 1.976.31-7.706-3.474-15.566-6.262-22.647-7.201z" fill="#d4e1f4"/><path d="m395.906 82.293c-13.789-34.82-46.526-48.928-87.573-37.739-15.372 4.191-23.416 9.178-31.932 14.459a133.72 133.72 0 0 1 -20.446 10.9c-.089.037-.177.075-.264.115-1.913-1.056-4.191-2.371-6.688-3.814-14.1-8.14-35.4-20.443-53.629-22.861-39.778-5.273-70.2 12.436-81.365 47.377-10.686 33.433.61 71.216 25.181 84.224 15.856 8.394 24.511 13.633 27.815 18.971 2.847 4.6 2.474 10.654 1.359 23.91-.185 2.2-.384 4.565-.578 7.105-1.609 21.048-.442 43.474 3.2 61.529a6 6 0 0 0 5.882 4.813h7.908l19.36 174.662a6 6 0 0 0 5.964 5.339h91.8a6 6 0 0 0 5.964-5.339l19.36-174.662h7.805a6 6 0 0 0 5.869-4.754c3.914-18.434 5.173-40.307 3.546-61.588-.193-2.528-.391-4.879-.575-7.073-1.114-13.262-1.487-19.319 1.36-23.918 3.3-5.33 11.956-10.579 27.816-19 13.067-6.935 22.574-21.021 26.768-39.662a92.329 92.329 0 0 0 -3.907-52.994zm-99.378 376.993h-81.056l-18.622-168h118.3zm91.577-326.628c-3.364 14.951-10.9 26.505-20.687 31.7-18.519 9.831-27.591 15.525-32.393 23.282-5.054 8.163-4.324 16.849-3.115 31.239.182 2.167.377 4.487.568 6.983a215.775 215.775 0 0 1 -2.387 53.427h-148.231a228.165 228.165 0 0 1 -2.109-53.427c.192-2.507.388-4.839.571-7.014 1.21-14.385 1.94-23.068-3.113-31.232-4.811-7.771-13.884-13.456-32.4-23.26-19.346-10.242-28.214-42.282-19.365-69.965 4.444-13.9 20-45.549 68.356-39.135 15.867 2.1 35.93 13.69 49.205 21.357 4.041 2.333 7.53 4.348 10.14 5.646 12.592 6.262 31.507 14.162 50.305 10.5a6 6 0 0 0 -2.3-11.778c-8.921 1.743-19.015.356-31.192-4.356 4.974-2.573 9.031-5.089 12.77-7.407 8.089-5.016 15.076-9.348 28.764-13.08 35.076-9.562 61.778 1.585 73.26 30.58a80.048 80.048 0 0 1 3.353 45.94z" fill="#0635c9"/><g fill="#1ae5be"><path d="m330.671 412.406-151.666 29.935a6 6 0 0 0 1.155 11.888 6.07 6.07 0 0 0 1.169-.115l151.671-29.934a6 6 0 1 0 -2.324-11.774z"/><path d="m330.671 383.245-151.666 29.934a6 6 0 0 0 1.155 11.887 6.068 6.068 0 0 0 1.169-.114l151.671-29.933a6 6 0 1 0 -2.324-11.774z"/><path d="m330.671 354.083-151.666 29.935a6 6 0 0 0 1.155 11.887 6.068 6.068 0 0 0 1.169-.114l151.671-29.935a6 6 0 1 0 -2.324-11.773z"/><path d="m330.671 324.922-151.666 29.933a6 6 0 0 0 1.155 11.888 6.068 6.068 0 0 0 1.169-.114l151.671-29.929a6 6 0 1 0 -2.324-11.773z"/><path d="m180.16 337.582a6.068 6.068 0 0 0 1.169-.114l151.671-29.935a6 6 0 1 0 -2.324-11.773l-151.671 29.934a6 6 0 0 0 1.155 11.888z"/></g></svg>