<svg id="Layer_1" height="512" viewBox="0 0 512 512" width="512" xmlns="http://www.w3.org/2000/svg" data-name="Layer 1"><path d="m315.116 117.8c-16.009 4.364-24.15 9.412-33.577 15.257a180.409 180.409 0 0 1 -18.593 10.453c9.454 4.03 17.884 6.442 25.581 7.322a188.263 188.263 0 0 0 17.128-9.736c9.427-5.845 17.569-10.893 33.578-15.257q2.177-.594 4.317-1.1l.772-10.855a102.428 102.428 0 0 0 -29.206 3.916z" fill="#d4e1f4"/><path d="m203.359 427.234c-.009-.091-.04-.389-.084-.87-15.837-28.493-19.406-70.307-16.848-103.771.221-2.885.446-5.567.657-8.071 1.354-16.095 2.171-25.81-3.273-34.6-5.24-8.465-15.92-15.12-36.423-25.974-11.3-5.984-19.933-17.99-24.3-33.807a88.058 88.058 0 0 1 1.061-49c4.985-15.595 14.153-28.151 26.514-36.31 14.436-9.528 32.68-12.911 54.228-10.053.76.1 1.531.227 2.3.363-8.99-4.054-18.161-7.306-26.422-8.4-21.548-2.859-39.791.524-54.228 10.052-12.36 8.159-21.528 20.715-26.513 36.31a88.052 88.052 0 0 0 -1.061 49c4.369 15.816 13 27.822 24.3 33.806 20.5 10.854 31.183 17.509 36.422 25.974 5.444 8.795 4.627 18.51 3.274 34.6-.211 2.5-.437 5.186-.657 8.071-3.095 40.471 2.755 93.177 28.455 119.731a9.333 9.333 0 0 0 2.994 1.416 7.151 7.151 0 0 0 9.657-8.074c-.019-.127-.039-.261-.053-.393z" fill="#d4e1f4"/><path d="m29.338 346.728a43.357 43.357 0 0 1 50.289 2.8 55.513 55.513 0 0 0 77.471-8.169l11.048-13.52a6 6 0 1 0 -9.292-7.592l-11.048 13.519a43.483 43.483 0 0 1 -60.675 6.4 55.358 55.358 0 0 0 -64.21-3.578l-10.129 6.412a6 6 0 0 0 6.416 10.14z" fill="#0635c9"/><path d="m497.215 327.328-31.072-6.428a55.106 55.106 0 0 0 -40.108 7.009 43.371 43.371 0 0 1 -43.654.941l-18.1-10.05a6 6 0 0 0 -5.825 10.492l18.1 10.049a55.382 55.382 0 0 0 55.752-1.2 43.151 43.151 0 0 1 31.4-5.488l31.073 6.428a6 6 0 0 0 2.43-11.751z" fill="#0635c9"/><path d="m122.521 262.372c19.241 10.187 29.764 16.576 33.881 23.225 3.622 5.852 3.172 13.262 1.809 29.465-.222 2.644-.461 5.478-.694 8.526-1.659 21.708-4.2 95.512 32.846 133.787a18.867 18.867 0 0 0 32.079-16.42c-.473-4.913-8.392-94.106 29.558-140.3a14.011 14.011 0 0 1 21.488.107c37.2 46.416 29.408 135.272 28.94 140.2a18.422 18.422 0 0 0 18.379 21.7 19.1 19.1 0 0 0 6.224-1.043 18.658 18.658 0 0 0 7.476-4.244c37.043-38.275 34.506-112.075 32.846-133.787-.232-3.033-.469-5.855-.69-8.488-1.362-16.21-1.812-23.623 1.81-29.474 4.11-6.639 14.635-13.041 33.881-23.257 12.6-6.686 22.4-19.043 28.346-35.735 5.461-15.33 7.137-33.26 4.72-50.488-5.269-37.554-27.753-64.08-60.143-70.956a6 6 0 0 0 -2.492 11.739c27.241 5.782 46.214 28.543 50.752 60.884 4.519 32.21-6.756 63.313-26.808 73.957-22.051 11.7-32.837 18.458-38.459 27.54-5.861 9.468-5 19.753-3.565 36.794.219 2.606.453 5.4.683 8.4 3.222 42.134-2.837 96.973-29.453 124.477a9.851 9.851 0 0 1 -2.809 1.292 6.719 6.719 0 0 1 -8.421-3.38 6.793 6.793 0 0 1 -.434-3.987c.031-.163.055-.328.072-.494.415-3.968 9.685-97.778-31.491-149.155a26.008 26.008 0 0 0 -40.124-.219c-41.991 51.112-32.62 145.39-32.2 149.378.017.165.041.328.072.49a6.81 6.81 0 0 1 -.434 3.987 6.721 6.721 0 0 1 -8.423 3.379 11.048 11.048 0 0 1 -2.759-1.244c-26.666-27.553-32.725-82.392-29.5-124.526.231-3.015.467-5.819.687-8.436 1.433-17.034 2.3-27.317-3.564-36.786-5.632-9.1-16.419-15.841-38.469-27.514-23.728-12.562-34.651-51.715-23.853-85.5 5.432-16.994 24.433-55.678 83.438-47.85 19.3 2.56 43.531 16.553 59.564 25.812 4.837 2.793 9.014 5.2 12.116 6.747 31.26 15.547 49.026 14.584 59.669 12.508a6 6 0 1 0 -2.3-11.778c-11.555 2.253-24.663.253-40.638-6.289a199.089 199.089 0 0 0 17.635-10.057c9.8-6.076 18.263-11.324 34.878-15.854a115.977 115.977 0 0 1 22.405-3.934 6 6 0 1 0 -.822-11.972 127.946 127.946 0 0 0 -24.739 4.329c-18.3 4.988-27.891 10.936-38.045 17.233a161.548 161.548 0 0 1 -24.734 13.186c-.278.116-.549.246-.814.385-2.423-1.323-5.356-3.016-8.612-4.9-16.854-9.733-42.325-24.442-63.987-27.315-47.166-6.258-83.22 14.714-96.446 56.091-12.67 39.646.639 84.392 29.668 99.764z" fill="#1ae5be"/><path d="m202.181 283.458a73.926 73.926 0 0 0 -10.232 18.342 5.944 5.944 0 0 0 -.467 1.268 73.689 73.689 0 0 0 -4.255 30.913l8.473 121.777a6 6 0 0 0 5.979 5.584q.21 0 .423-.015a6 6 0 0 0 5.569-6.4l-6.471-93.056a127.377 127.377 0 0 1 4.028-24.209c2.964-10.776 8.657-24.284 18.942-27.434a6 6 0 0 0 -3.515-11.474c-9.523 2.917-16.177 10.594-20.824 19.625a62.194 62.194 0 0 1 2.956-11.3 158.566 158.566 0 0 0 9.671-17.3c.789-.994 1.6-1.973 2.454-2.919l4.031-4.468a61.778 61.778 0 0 1 89.569-2.288 61.894 61.894 0 0 1 17.993 46.93l-.128 2.746c-4.323-6.413-10.489-11.378-19.278-12.872a6 6 0 1 0 -2.012 11.83c20.5 3.487 19.3 43.828 19.277 44.3l-3.817 82.02a6 6 0 0 0 11.987.558l2.675-57.5a5.947 5.947 0 0 0 1.12-2.643l49.831-323.78a19.4 19.4 0 1 0 -38.533-4.326l-16 225.2a73.792 73.792 0 0 0 -110.19-28.511c2.517-12.941 1.34-25.913-8.763-34.467a6 6 0 1 0 -7.754 9.158c9.115 7.718 5.664 23.594 1.164 35.554-1.199 3.188-2.541 6.277-3.903 9.157zm151.232-128.2 7.6.947-14.239 92.511zm14.667-44.979-11.371-1.416.354-4.983 11.776 1.467zm-1.826 11.866-.8 5.164-9.972-1.242.37-5.217zm-2.621 17.03-.795 5.164-8.573-1.068.37-5.217zm2.906-77.825c.15-.01.3-.014.45-.014a7.4 7.4 0 0 1 7.311 8.53l-3.635 23.616-12.75-1.582 1.685-23.683a7.423 7.423 0 0 1 6.939-6.865z" fill="#0635c9"/></svg>