<svg id="Layer_1" height="512" viewBox="0 0 512 512" width="512" xmlns="http://www.w3.org/2000/svg" data-name="Layer 1"><g fill="#d4e1f4"><path d="m355.229 111.5c8.963-1.282 16.7-2.389 30.164-.452 11.249 1.618 20.9 4.807 28.81 9.376-8.97-12.128-24.12-20.174-44.469-23.1-13.462-1.937-21.2-.83-30.165.452a149.331 149.331 0 0 1 -17.336 1.733 77.4 77.4 0 0 0 16.991 13.667 155.466 155.466 0 0 0 16.005-1.676z"/><path d="m301.206 302.672c9.821-29.871 11.785-55.441 5.838-76a19.533 19.533 0 0 0 -11.218-12.494 20.317 20.317 0 0 0 -4.473-1.328c.01.033.022.065.031.1 5.947 20.559 3.983 46.129-5.838 76a240.044 240.044 0 0 1 -16.452 38.6c-.053.094-.109.186-.169.275a5.847 5.847 0 0 0 -1.015 3.364 6.073 6.073 0 0 0 5.75 5.722 7.626 7.626 0 0 0 2.715-.084 61.962 61.962 0 0 0 15.01-8.981 254.339 254.339 0 0 0 9.821-25.174z"/><path d="m187.572 296.12c.022-.071.093-.3.211-.671-2.944-26.181 7.58-58.258 20.09-82.182 1.079-2.062 2.1-3.973 3.047-5.756 6.11-11.467 9.8-18.388 8.469-26.649-1.278-7.95-7.234-16.318-19.277-30.959-6.638-8.072-9.356-19.735-7.654-32.842a69.46 69.46 0 0 1 16.291-35.9c8.692-9.926 19.58-16.254 31.488-18.3 13.907-2.39 28.745.993 44.1 10.059.541.319 1.083.661 1.625 1.011-5.5-5.9-11.4-11.261-17.285-14.736-15.359-9.066-30.2-12.449-44.1-10.059-11.907 2.047-22.8 8.375-31.488 18.3a69.458 69.458 0 0 0 -16.29 35.895c-1.7 13.107 1.015 24.77 7.654 32.842 12.042 14.641 18 23.009 19.277 30.959 1.328 8.261-2.36 15.182-8.469 26.649-.951 1.783-1.969 3.694-3.047 5.756-15.13 28.934-27.376 69.8-16.375 97.73a7.718 7.718 0 0 0 1.812 2.013 6.07 6.07 0 0 0 8.11.2 5.848 5.848 0 0 0 1.731-3.059c.022-.096.049-.199.08-.301z"/></g><path d="m480.975 269.142c-36.344-12.667-66.787-12.534-90.485.4-35.114 19.16-43.279 59.571-51.176 98.651-6.949 34.394-13.513 66.881-37.427 82.538-16.634 10.89-40.4 12.219-70.636 3.952a110.936 110.936 0 0 1 -59.844-40.73 116.607 116.607 0 0 1 -23.407-69.117c-.37-28.734-12.551-53.933-32.584-67.4-35.8-24.079-83.063-1.386-85.058-.41a6 6 0 0 0 5.284 10.774c.425-.21 42.963-20.659 73.077-.409 16.764 11.273 26.963 32.805 27.282 57.6a128.531 128.531 0 0 0 25.817 76.177 122.823 122.823 0 0 0 66.268 45.089q21.078 5.764 38.626 5.762c16.333 0 30.3-3.753 41.748-11.248 28.11-18.4 35.485-54.9 42.617-90.2 7.691-38.061 14.955-74.011 45.161-90.495 20.6-11.238 47.778-11.1 80.787.4a6 6 0 0 0 3.95-11.332z" fill="#0635c9"/><path d="m202.72 312.671a15.9 15.9 0 0 0 4.06-8.14c1.041-4.1 18.5-70.6 57.7-94.095a9.554 9.554 0 0 1 13.749 4.987c14.865 43.046-13.62 105.313-15.4 109.133a15.731 15.731 0 0 0 13.781 23.5h.333a15.419 15.419 0 0 0 6.853-1.291c14.082-6.954 26.879-19.87 38.039-38.391 8.885-14.747 16.585-33.139 21.683-51.788.624-2.285 1.189-4.415 1.717-6.4 3.163-11.924 4.724-17.325 8.574-20.4 4.5-3.594 13.718-5.476 30.239-7.885 13.787-2.011 26.67-11.475 36.278-26.649a86.633 86.633 0 0 0 13.274-48.052c-1.194-35.174-25.687-58.009-65.52-61.082-14.894-1.148-23.559.715-32.736 2.69a124.479 124.479 0 0 1 -21.344 3.155l-.079.005c-1.319-1.5-2.862-3.316-4.549-5.3-9.859-11.612-24.759-29.16-40.1-37.048-33.508-17.231-66.006-11.171-86.931 16.212-20.012 26.189-21.939 63.191-4.295 82.485 11.258 12.31 17.195 19.593 18.405 25.237 1.032 4.815-1.182 9.98-6.289 21.2-.856 1.881-1.773 3.9-2.743 6.07-7.873 17.657-13.57 36.765-16.041 53.8-3.1 21.4-1.386 39.5 5.1 53.8a15.758 15.758 0 0 0 4.744 5.552 15.934 15.934 0 0 0 21.498-1.305zm-15.379-9.351c-12.025-26.74-2.192-67.933 11.04-97.608.956-2.144 1.861-4.131 2.705-5.986 5.617-12.344 9.007-19.794 7.1-28.689-1.808-8.435-8.026-16.325-21.282-30.82-13.673-14.951-11.4-45.68 4.973-67.1 8.216-10.75 31.67-33.52 71.909-12.827 13.221 6.8 27.193 23.254 36.439 34.142 2.824 3.327 5.264 6.2 7.16 8.17 9.146 9.5 23.364 22.454 41.165 25.152a6 6 0 1 0 1.8-11.864c-8.113-1.23-16.285-5.41-25.192-12.966 4.813-.686 8.916-1.569 12.712-2.385 8.659-1.864 16.134-3.473 29.289-2.457 33.624 2.594 53.47 20.645 54.45 49.523.984 29-18.112 59.338-39.294 62.428-19.447 2.836-29.259 5.008-35.991 10.378-7.111 5.672-9.21 13.588-12.689 26.7-.52 1.962-1.078 4.063-1.694 6.317-8.566 31.341-27.061 69.439-53.306 82.508a8.244 8.244 0 0 1 -1.889.125 3.74 3.74 0 0 1 -3.418-5.7q.127-.215.235-.44c1.351-2.817 32.892-69.535 16.011-118.419a21.265 21.265 0 0 0 -13.061-13.094 21.738 21.738 0 0 0 -7.317-1.276 21.126 21.126 0 0 0 -10.882 3.007c-44.574 26.714-62.5 98.694-63.241 101.745-.039.161-.071.323-.1.486a3.74 3.74 0 0 1 -6.254 2.238 8.813 8.813 0 0 1 -1.378-1.288z" fill="#1ae5be"/></svg>