<svg id="Layer_1" height="512" viewBox="0 0 512 512" width="512" xmlns="http://www.w3.org/2000/svg" data-name="Layer 1"><path d="m278.677 410.37c-3.3-38.956-13.349-69.154-29.86-89.755a23.612 23.612 0 0 0 -18.553-8.8 24.3 24.3 0 0 0 -5.648.668c.026.032.054.063.081.1 16.511 20.6 26.557 50.8 29.859 89.755a304.644 304.644 0 0 1 .051 52.173c-.014.133-.033.266-.059.4a7.154 7.154 0 0 0 9.659 8.076 9.287 9.287 0 0 0 3-1.423 76.992 76.992 0 0 0 12.517-17.606 322.539 322.539 0 0 0 -1.047-33.588z" fill="#d4e1f4"/><path d="m157.173 454.507c-.01-.092-.04-.39-.085-.87-15.839-28.5-19.409-70.32-16.851-103.79.221-2.886.447-5.568.658-8.072 1.353-16.1 2.171-25.814-3.275-34.61-5.24-8.466-15.921-15.123-36.428-25.979-11.3-5.984-19.937-17.993-24.306-33.812a88.062 88.062 0 0 1 1.061-49.006c4.986-15.6 14.155-28.156 26.518-36.316 14.435-9.53 32.686-12.913 54.235-10.052.76.1 1.53.226 2.305.362-8.992-4.054-18.164-7.307-26.426-8.4-21.552-2.858-39.8.525-54.238 10.055-12.362 8.16-21.532 20.718-26.518 36.316a88.071 88.071 0 0 0 -1.061 49.006c4.37 15.819 13 27.827 24.306 33.812 20.51 10.849 31.191 17.508 36.432 25.973 5.445 8.8 4.628 18.513 3.274 34.611-.211 2.5-.437 5.186-.657 8.072-3.095 40.478 2.756 93.193 28.46 119.752a9.333 9.333 0 0 0 2.994 1.416 7.153 7.153 0 0 0 9.66-8.075c-.025-.13-.044-.261-.058-.393z" fill="#d4e1f4"/><path d="m105.42 344.091c-1.581 20.68-4 90.99 31.326 127.485a18.238 18.238 0 0 0 31.014-15.86c-.457-4.764-7.949-89.411 28.053-133.234a13.036 13.036 0 0 1 19.985.1c35.289 44.031 27.919 128.363 27.466 133.139a17.817 17.817 0 0 0 17.774 20.979 18.488 18.488 0 0 0 6.015-1.007 18.025 18.025 0 0 0 7.227-4.111c35.321-36.5 32.906-106.806 31.325-127.486-.221-2.887-.446-5.571-.657-8.077-1.29-15.353-1.717-22.371 1.68-27.858 3.874-6.259 13.855-12.325 32.117-22.018 14.709-7.808 25.419-23.7 30.157-44.759a104.649 104.649 0 0 0 -4.424-60.067c-7.081-17.879-19.007-31.46-34.489-39.272-17.885-9.024-39.611-10.15-64.572-3.347-17.448 4.756-26.59 10.425-36.268 16.426a153.542 153.542 0 0 1 -23.485 12.522c-.225.093-.446.2-.662.3-2.273-1.245-5.02-2.831-8.048-4.58-16.052-9.269-40.31-23.278-60.972-26.018-45.016-5.97-79.431 14.052-92.059 53.552-12.092 37.832.631 80.556 28.363 95.238 18.256 9.665 28.236 15.719 32.116 21.988 3.4 5.487 2.969 12.5 1.679 27.848-.212 2.519-.439 5.215-.661 8.117zm-27.52-68.556c-22.453-11.887-32.778-48.971-22.547-80.978 5.147-16.095 23.147-52.731 79.047-45.314 18.3 2.427 41.318 15.719 56.549 24.514 4.606 2.66 8.584 4.957 11.543 6.429 14.28 7.1 35.721 16.064 56.945 11.921a6 6 0 1 0 -2.3-11.777c-10.788 2.1-23.018.287-37.887-5.719 6.334-3.166 11.334-6.265 16.217-9.294 9.3-5.767 17.336-10.749 33.1-15.046 40.558-11.056 71.447 1.869 84.749 35.459a92.365 92.365 0 0 1 3.874 53.014c-3.9 17.332-12.675 30.742-24.076 36.794-21.024 11.159-31.311 17.6-36.694 26.3-5.627 9.088-4.8 18.909-3.435 35.179.208 2.477.432 5.131.65 7.986 3.059 40.016-2.685 92.087-27.914 118.16a9.419 9.419 0 0 1 -2.578 1.176 6.1 6.1 0 0 1 -7.647-3.057 6.179 6.179 0 0 1 -.394-3.62c.031-.163.055-.328.073-.493.395-3.78 9.224-93.131-30.018-142.094a25.033 25.033 0 0 0 -38.621-.212c-40.02 48.713-31.094 138.511-30.695 142.31q.025.246.072.489a6.175 6.175 0 0 1 -.394 3.621 6.1 6.1 0 0 1 -7.647 3.055 11.258 11.258 0 0 1 -2.512-1.113c-25.294-26.142-31.039-78.21-27.979-118.223.219-2.867.443-5.534.653-8.023 1.367-16.263 2.193-26.08-3.433-35.17-5.388-8.709-15.677-15.144-36.701-26.274z" fill="#0635c9"/><path d="m456.618 57.723h-262.354l-9.033-9a45.7 45.7 0 0 0 -32.47-13.423h-97.379a16.017 16.017 0 0 0 -16 16v45.818a6 6 0 0 0 12 0v-45.818a4 4 0 0 1 4-4h2.478v50.483a6 6 0 0 0 12 0v-50.483h5.4v50.483a6 6 0 0 0 12 0v-50.483h5.4v50.483a6 6 0 0 0 12 0v-50.483h5.4v50.483a6 6 0 1 0 12 0v-50.483h5.4v50.483a6 6 0 1 0 12 0v-50.483h5.4v50.483a6 6 0 1 0 12 0v-50.226a33.743 33.743 0 0 1 19.9 9.664l19.154 19.086a45.708 45.708 0 0 0 32.469 13.416h228.235a16 16 0 0 0 0-32zm0 20h-228.235a33.756 33.756 0 0 1 -21.913-8h250.148a4 4 0 0 1 0 8z" fill="#1ae5be"/></svg>