<svg id="Layer_1" height="512" viewBox="0 0 512 512" width="512" xmlns="http://www.w3.org/2000/svg" data-name="Layer 1"><path d="m250.806 92.579c10.1-6.263 18.824-11.671 35.977-16.347 14.332-3.908 27.555-5.055 39.393-3.6-16.99-10.159-39.305-12.083-65.232-5.014-17.153 4.682-25.876 10.082-35.977 16.348a193.585 193.585 0 0 1 -19.92 11.2c10.129 4.317 19.162 6.9 27.408 7.845a201.616 201.616 0 0 0 18.351-10.432z" fill="#d4e1f4"/><path d="m141.2 399.152c-.01-.1-.043-.417-.091-.932-16.967-30.528-20.792-75.329-18.051-111.184.237-3.091.478-5.964.7-8.646 1.45-17.245 2.326-27.654-3.507-37.077-5.614-9.069-17.056-16.2-39.024-27.829-12.11-6.411-21.357-19.275-26.038-36.221a94.34 94.34 0 0 1 1.137-52.5c5.349-16.706 15.174-30.163 28.415-38.901 15.468-10.209 35.014-13.833 58.1-10.77.814.108 1.64.242 2.47.388-9.633-4.343-19.458-7.828-28.309-9-23.088-3.063-42.634.561-58.1 10.77-13.243 8.742-23.066 22.2-28.407 38.9a94.34 94.34 0 0 0 -1.137 52.5c4.681 16.95 13.928 29.81 26.042 36.221 21.963 11.629 33.406 18.76 39.02 27.829 5.833 9.423 4.957 19.832 3.507 37.077-.226 2.682-.468 5.555-.7 8.646-3.315 43.362 2.952 99.833 30.488 128.284a9.976 9.976 0 0 0 3.208 1.517 7.661 7.661 0 0 0 10.347-8.65c-.03-.14-.051-.281-.07-.422z" fill="#d4e1f4"/><path d="m289.927 349.719a6 6 0 0 0 -7.286 4.349c-5.248 20.787-13.4 37-24.18 48.142a9.945 9.945 0 0 1 -2.859 1.318 6.662 6.662 0 0 1 -9.034-7.518c.031-.164.055-.329.072-.494a321.193 321.193 0 0 0 .2-52.111 6 6 0 0 0 -11.967.892 317.815 317.815 0 0 1 -.151 49.764 18.554 18.554 0 0 0 18.511 21.865 19.252 19.252 0 0 0 6.27-1.051 18.809 18.809 0 0 0 7.53-4.274c12.306-12.715 21.471-30.747 27.239-53.6a6 6 0 0 0 -4.345-7.282z" fill="#1ae5be"/><path d="m347.8 77.732c-14.476-16.436-41.807-33.282-89.811-20.2-18.485 5.039-28.175 11.048-38.434 17.409a163.35 163.35 0 0 1 -25.011 13.333c-.289.121-.571.256-.846.4-2.455-1.341-5.431-3.058-8.734-4.966-17.03-9.834-42.766-24.7-64.647-27.6-47.632-6.308-84.049 14.865-97.407 56.653-12.795 40.031.642 85.225 29.955 100.744 19.456 10.3 30.1 16.763 34.266 23.5 3.826 6.182 3.12 14.577 1.838 29.818-.224 2.673-.465 5.537-.7 8.618-1.9 24.907-.531 50.623 3.865 72.411 5.493 27.218 15.356 48.332 29.314 62.754a18.816 18.816 0 0 0 7.53 4.274 19.249 19.249 0 0 0 6.271 1.051 18.554 18.554 0 0 0 18.51-21.865c-.473-4.95-8.44-95.195 29.888-141.85a13.571 13.571 0 0 1 4.82-3.715 6 6 0 0 0 -5.05-10.886 25.818 25.818 0 0 0 -9.042 6.984c-17.918 21.81-28.831 53.905-32.435 95.393a319.763 319.763 0 0 0 -.095 55.533c.018.164.041.327.072.49a6.927 6.927 0 0 1 -.443 4.066 6.857 6.857 0 0 1 -8.59 3.452 11.233 11.233 0 0 1 -2.813-1.273c-17.681-18.268-34.8-60.937-29.837-125.9.233-3.048.472-5.882.694-8.527 1.447-17.2 2.32-27.587-3.593-37.139-5.683-9.183-16.58-15.993-38.855-27.786-24.007-12.709-35.061-52.315-24.138-86.485 5.495-17.19 24.721-56.315 84.4-48.4 19.52 2.589 44.014 16.735 60.223 26.1 4.887 2.823 9.108 5.26 12.242 6.819 15.124 7.52 37.824 17.014 60.265 12.634a6 6 0 1 0 -2.3-11.777c-11.72 2.285-25.021.243-41.237-6.415a200.609 200.609 0 0 0 17.944-10.224c9.908-6.143 18.465-11.45 35.266-16.03 33.275-9.069 60.125-3.346 77.649 16.552 22.352 25.379 23.256 66 12.759 91.333a6 6 0 1 0 11.086 4.594c12.183-29.422 10.998-74.539-14.839-103.877z" fill="#1ae5be"/><path d="m484.728 405.639-71.58-71.579a6 6 0 0 0 -8.485 0l-13.652 13.652-21.941-21.941a107.248 107.248 0 1 0 -8.486 8.485l21.941 21.944-13.652 13.652a6 6 0 0 0 0 8.485l71.58 71.58a31.307 31.307 0 0 0 44.275-44.275zm-195.6-56.1a95.337 95.337 0 1 1 67.337-27.892 94.605 94.605 0 0 1 -67.34 27.893zm119.781-2.752 9.409 9.409-27.3 27.3-9.41-9.409zm67.336 94.64a19.306 19.306 0 0 1 -27.3 0l-49.445-49.44 27.305-27.3 49.441 49.441a19.306 19.306 0 0 1 0 27.3z" fill="#0635c9"/></svg>